<?xml version="1.0" standalone="no"?>
<!DOCTYPE svg PUBLIC "-//W3C//DTD SVG 20010904//EN"
 "http://www.w3.org/TR/2001/REC-SVG-20010904/DTD/svg10.dtd">
<svg version="1.0" xmlns="http://www.w3.org/2000/svg"
 width="500.000000pt" height="500.000000pt" viewBox="0 0 500.000000 500.000000"
 preserveAspectRatio="xMidYMid meet">

<g transform="translate(0.000000,500.000000) scale(0.100000,-0.100000)"
fill="#000000" stroke="none">
<path d="M2427 3359 c-105 -25 -204 -106 -254 -207 -26 -52 -28 -66 -28 -172
0 -110 1 -118 32 -175 37 -71 105 -138 171 -168 72 -32 191 -35 265 -7 161 60
255 211 245 389 -10 174 -127 310 -292 340 -68 13 -86 13 -139 0z m126 -50
c119 -33 190 -199 167 -386 -21 -167 -102 -263 -223 -263 -61 0 -94 14 -140
58 -117 114 -114 438 6 550 28 26 89 51 127 52 14 0 42 -5 63 -11z"/>
<path d="M2965 3342 c-3 -3 -5 -14 -5 -24 0 -13 8 -18 30 -18 17 0 39 -9 50
-20 19 -19 20 -33 20 -294 0 -296 -2 -306 -53 -306 -32 0 -51 -15 -44 -34 5
-14 28 -16 156 -16 93 0 152 4 156 10 11 17 -15 40 -45 40 -44 0 -53 21 -58
135 l-5 103 85 -5 c141 -9 242 39 292 139 31 62 33 117 6 175 -39 87 -115 110
-382 116 -109 2 -200 2 -203 -1z m385 -60 c67 -26 93 -70 88 -152 -4 -79 -31
-123 -92 -151 -43 -19 -140 -25 -164 -10 -20 12 -13 291 7 314 18 22 101 22
161 -1z"/>
<path d="M1436 3318 c-12 -46 -7 -165 8 -177 26 -22 51 3 65 63 17 75 44 96
123 96 l59 0 -3 -293 c-3 -318 -5 -327 -57 -327 -32 0 -52 -17 -44 -36 4 -11
38 -14 159 -14 144 0 154 1 154 19 0 19 -18 31 -49 31 -10 0 -25 8 -34 18 -15
16 -17 53 -17 310 l0 292 60 0 c52 0 64 -4 84 -25 13 -14 27 -42 30 -63 11
-60 16 -70 35 -75 36 -9 42 6 39 104 l-3 94 -301 3 -302 2 -6 -22z"/>
<path d="M2381 2351 c-68 -18 -66 -5 -69 -381 -3 -368 1 -409 43 -428 16 -7
82 -12 170 -12 l144 0 21 27 c20 26 21 33 18 390 -4 444 12 406 -170 410 -68
1 -138 -2 -157 -6z m272 -44 c16 -11 18 -40 15 -365 -3 -301 -5 -354 -18 -362
-23 -15 -273 -13 -288 2 -13 13 -18 694 -4 714 12 19 34 22 158 23 82 1 126
-3 137 -12z"/>
<path d="M1088 2245 c-18 -10 -29 -26 -33 -48 -3 -17 -5 -166 -3 -329 3 -269
5 -299 21 -315 15 -15 40 -18 172 -21 154 -3 155 -3 180 22 23 24 25 31 25
128 l0 103 48 18 c96 33 141 95 150 203 4 51 0 71 -21 117 -48 104 -136 137
-367 137 -108 -1 -152 -5 -172 -15z m412 -49 c80 -42 104 -84 102 -179 -2
-107 -50 -167 -147 -181 l-45 -7 0 -110 c0 -150 1 -149 -168 -149 -86 0 -132
4 -140 12 -18 18 -17 609 1 627 9 9 54 12 187 9 146 -3 181 -7 210 -22z"/>
<path d="M1410 2021 c0 -169 0 -171 22 -171 12 0 41 12 66 26 53 31 81 86 82
157 0 84 -47 140 -129 153 l-41 7 0 -172z m87 99 c37 -22 48 -52 40 -116 -5
-47 -34 -88 -68 -97 -18 -5 -19 2 -19 114 0 65 3 119 8 119 4 0 22 -9 39 -20z"/>
<path d="M1925 2089 c-100 -13 -200 -81 -241 -165 -73 -149 -4 -334 153 -415
41 -20 62 -24 143 -24 108 0 151 17 216 82 59 59 87 132 87 227 0 68 -4 89
-26 132 -58 114 -195 181 -332 163z m65 -184 c0 -51 -3 -65 -15 -65 -12 0 -15
14 -15 65 0 51 3 65 15 65 12 0 15 -14 15 -65z m-80 -120 c0 -12 -13 -15 -60
-15 -47 0 -60 3 -60 15 0 12 13 15 60 15 47 0 60 -3 60 -15z m250 0 c0 -12
-13 -15 -60 -15 -47 0 -60 3 -60 15 0 12 13 15 60 15 47 0 60 -3 60 -15z
m-170 -125 c0 -47 -3 -60 -15 -60 -12 0 -15 13 -15 60 0 47 3 60 15 60 12 0
15 -13 15 -60z"/>
<path d="M3002 2088 c-95 -14 -192 -81 -235 -162 -18 -33 -22 -58 -22 -131 0
-81 3 -95 29 -143 72 -129 200 -192 346 -167 144 23 238 133 248 290 4 74 2
88 -23 144 -54 120 -197 191 -343 169z m68 -183 c0 -51 -3 -65 -15 -65 -12 0
-15 14 -15 65 0 51 3 65 15 65 12 0 15 -14 15 -65z m-70 -120 c0 -12 -14 -15
-65 -15 -51 0 -65 3 -65 15 0 12 14 15 65 15 51 0 65 -3 65 -15z m250 0 c0
-12 -14 -15 -65 -15 -51 0 -65 3 -65 15 0 12 14 15 65 15 51 0 65 -3 65 -15z
m-180 -125 c0 -47 -3 -60 -15 -60 -12 0 -15 13 -15 60 0 47 3 60 15 60 12 0
15 -13 15 -60z"/>
<path d="M3690 2074 c-59 -12 -119 -36 -137 -57 -34 -37 -42 -60 -63 -197 -11
-73 -25 -140 -30 -150 -5 -10 -26 -19 -50 -23 -50 -6 -48 -5 -54 -44 -7 -37 1
-44 74 -67 173 -54 374 -15 424 82 8 15 21 87 30 160 9 72 19 138 22 146 3 9
22 16 42 18 37 3 37 3 37 48 l0 44 -58 18 c-60 18 -192 30 -237 22z m213 -54
c47 -12 64 -30 28 -30 -11 0 -31 -10 -46 -22 -23 -21 -27 -36 -44 -173 -19
-149 -20 -150 -54 -182 -19 -17 -52 -36 -74 -42 -77 -22 -310 -4 -316 24 -1 5
14 12 33 16 60 13 75 41 95 185 10 71 24 143 31 161 13 34 56 61 114 74 46 10
173 4 233 -11z"/>
</g>
</svg>
